<?xml version="1.0" encoding="UTF-8"?><svg id="Layer_1" xmlns="http://www.w3.org/2000/svg" viewBox="0 0 141.36 171.03"><defs><style>.cls-1{fill:none;stroke:#5a8297;stroke-miterlimit:10;}.cls-2{fill:#5a8297;}</style></defs><path class="cls-2" d="M131.8,89.32l-11.63,72.09c-2.18,5.48-7.33,8.87-13.25,9.04-23.74-1.44-49.59,1.84-73.08,0-6.95-.54-12.23-4.78-13.36-11.78l-11.05-69.35h122.37Z"/><path class="cls-2" d="M5.06,70.02l131.72-.14c2.1.36,4.09.74,4.47,3.11.32,2.01,0,8.44-1.98,9.34H2.43c-2.15-.92-2.91-8.02-2.13-9.96.87-2.16,2.81-1.99,4.76-2.35Z"/><path class="cls-2" d="M6.81,60.39c-.74-.18-.31-3.61-.23-4.5C11.16,6.09,76.67-18.53,112.58,16.29c.46.45.9.62.72,1.41l-10.55,3.24C68.72-4.8,18.32,17.71,15.59,60.39H6.81Z"/><path class="cls-2" d="M85.79,60.39h-45.53c-.98-8.08-1.55-16.17.23-24.19s4.94-7.4,12.02-5.85c14.59,3.19,29.65,15.17,33.28,30.04ZM52.75,51.22c5.45,5.45,13.29-3.57,7.45-8.16-5.52-4.34-12.27,3.34-7.45,8.16Z"/><path class="cls-2" d="M122.19,28.26c.56.6,1.32,3.9,1.49,4.92,1.57,9.19-.35,18.37-2.84,27.17l-24.64-.17c-1.45-3.03-2.44-6.3-4-9.28-1.17-2.23-5.24-7.14-5.72-8.55-.14-.41-.25-.44-.01-.91,1.45-2.85,12.79-9.58,16.07-11.01,4.02-1.75,16.26-5.8,19.65-2.16ZM106.04,38.67c-5.6,1.29-4.73,11.3,2.16,10.7s6.53-12.7-2.16-10.7Z"/><path class="cls-2" d="M135.12,60.39h-5.22s2.37-13.76,2.37-13.76c.82.13.83.94,1.07,1.53,1.59,3.77,1.9,8.18,1.77,12.23Z"/><path class="cls-1" d="M52.75,51.22c-4.82-4.82,1.93-12.51,7.45-8.16,5.84,4.6-2,13.61-7.45,8.16Z"/><path class="cls-1" d="M106.04,38.67c8.69-2,9.37,10.08,2.16,10.7s-7.76-9.41-2.16-10.7Z"/></svg>