<?xml version="1.0" encoding="UTF-8"?><svg id="Layer_1" xmlns="http://www.w3.org/2000/svg" viewBox="0 0 205.25 201.76"><defs><style>.cls-1{fill:none;stroke:#5a8297;stroke-miterlimit:10;}.cls-2{fill:#5a8297;}</style></defs><path class="cls-2" d="M157.35,96.79c-18,.11-33.95,8.51-44.26,23.12-1.54,2.18-2.68,4.51-4.07,6.76-.21.33.14.74-.73.56l-41.8-34.02c-4.78-3.83-5.92-10.07-1.9-14.92,16.88-18.62,31.33-41.3,48.26-59.63,3.75-4.06,6.3-4.71,11.35-6.41,11.5-3.88,25.47-8.41,37.15-11.37,21.58-5.46,20.75,16.37,22.47,31.27.63,5.49,1.38,11.38,1.78,16.86.4,5.43,1.24,10.86-2.24,15.52l-25.99,32.28ZM156.47,19.39c-15.13,1.8-9.62,25.07,4.74,19.92,11.57-4.15,6.8-21.3-4.74-19.92ZM140.83,69.85c3.89-3.73,1.21-12.08-2.43-15.24,2.75-2.05,5.41-6.14,1.94-8.9-5.16-4.1-7.19,3.56-8.73,3.85-12.88-5.49-23.38,7.38-17.72,19.58,2.01,4.34,7.94,9.41,6.2,14.41-2.11,6.07-10.07,4.35-12.54-.7-1.06-2.17-.5-3.08-.98-5.09-1-4.23-7.79-3.88-8.45.71s1.18,8.25,3.88,11.67c-2.07,2.87-4.76,7.77.11,9.43s5.51-4.05,7.08-4.36c10.11,4.26,21.05-4.21,20.08-15.03-.55-6.14-4.96-9.56-7.28-14.39-3.6-7.49,4.44-11.95,10.05-6.16,3.54,3.65,1.16,4.94,1.57,8.36.38,3.24,5.17,3.79,7.21,1.84Z"/><path class="cls-1" d="M140.83,69.85c-2.03,1.95-6.82,1.39-7.21-1.84-.41-3.43,1.97-4.71-1.57-8.36-5.61-5.79-13.65-1.33-10.05,6.16,2.32,4.83,6.73,8.25,7.28,14.39.97,10.82-9.97,19.29-20.08,15.03-1.57.31-2.18,6.03-7.08,4.36s-2.18-6.56-.11-9.43c-2.69-3.42-4.52-7.14-3.88-11.67s7.45-4.94,8.45-.71c.47,2.01-.09,2.92.98,5.09,2.47,5.05,10.44,6.77,12.54.7,1.74-5-4.19-10.07-6.2-14.41-5.66-12.2,4.84-25.07,17.72-19.58,1.54-.29,3.56-7.95,8.73-3.85,3.47,2.75.81,6.85-1.94,8.9,3.65,3.16,6.32,11.51,2.43,15.24Z"/><path class="cls-1" d="M156.47,19.39c11.54-1.37,16.31,15.78,4.74,19.92-14.36,5.14-19.87-18.12-4.74-19.92Z"/><path class="cls-2" d="M119.32,174.91c.26-.23-2.05-4.07-2.37-4.78-11.37-25.92,3.15-56.16,30.87-62.27,33.72-7.44,61.07,25.04,50.87,57.43-1.17,3.72-3.36,6.96-4.89,10.5,4.87.2,10.09,4.8,11.07,9.51.43,2.07.51,10.25.09,12.28-.32,1.58-1.96,3.39-3.48,3.88l-189.76.31c-1.96-.3-4.08-2.24-4.48-4.19-.42-2.08-.34-9.73,0-11.93.7-4.49,6.79-10.72,11.37-10.72h26.63v-11.05l-.65-.48c-8.67-1.04-18.84,1.47-27.06-1.69-7.49-2.88-14.34-10.7-16.79-18.3-1.08-3.36-1.62-6.14,2.7-7.06l95.83.34c3.67,1.99,1.88,5.6.62,8.64-3.58,8.61-11.36,16.08-20.7,17.87l-23.56.05v11.7h63.66ZM133.8,176.46c18.62,17,48.68,8.5,55.8-15.53,8.16-27.55-19.58-52.65-46.17-41.02-22.2,9.7-27.67,40.08-9.62,56.55Z"/><path class="cls-1" d="M133.8,176.46c-18.05-16.47-12.57-46.84,9.62-56.55,26.6-11.63,54.33,13.47,46.17,41.02-7.12,24.03-37.17,32.53-55.8,15.53ZM169.88,131.63c-1.16.21-4.5,3.82-5.53,4.91-1.15,1.22-4.4,5.76-5.38,6.32-1.92,1.1-4.43-.23-7.39,2.14-9.46,7.6,1.65,21.23,11.02,14.49,4.72-3.4,2.63-6.45,3.7-10.61.97-3.78,7.14-11.42,6.72-14.9-.2-1.6-1.53-2.65-3.14-2.36Z"/><path class="cls-2" d="M169.88,131.63c1.61-.29,2.94.75,3.14,2.36.43,3.49-5.74,11.12-6.72,14.9-1.07,4.15,1.02,7.21-3.7,10.61-9.36,6.73-20.48-6.9-11.02-14.49,2.96-2.37,5.47-1.04,7.39-2.14.98-.56,4.23-5.1,5.38-6.32,1.02-1.08,4.36-4.7,5.53-4.91Z"/></svg>