<?xml version="1.0" encoding="UTF-8"?>
<svg id="Layer_1" xmlns="http://www.w3.org/2000/svg" version="1.1" viewBox="0 0 540.7 347.33">
  <!-- Generator: Adobe Illustrator 29.7.1, SVG Export Plug-In . SVG Version: 2.1.1 Build 8)  -->
  <defs>
    <style>
      .st0 {
        fill: #5a8297;
      }
    </style>
  </defs>
  <path class="st0" d="M269.98,286.61c-12.32-2.18-24.65-3.42-36.9-6.25-19.3-4.46-38.7-11.43-56.97-19.02-23.28-9.67-44.57-22.11-67.05-33.32-2.14,0-5.75,5.99-7.34,7.82-23.04,26.49-51.9,52.25-84.29,66.6-4.48,1.99-15.17,8.21-16.12-.36-2.1-18.84,9.66-41.47,15.77-59.16,12.09-35.02,16.41-58.05,5.69-94.72C16.66,127.33-2.56,92.26.28,71.98c1-7.11,9.52-4.54,14.05-2.75,37.81,14.86,69.83,43.94,93.67,76.21,1.89,1.6,3.77.86,5.64-.27,29.12-19.7,58.08-39.7,88.34-57.66,2.21-1.31,14.84-7.71,15.4-8.48.6-.81.75-1.57.23-2.47-6.26-6.81-12.22-13.97-17.54-21.55-7.05-10.05-19.5-30.24-18.44-42.65.39-4.58,5.99-8.12,9.83-9.72,12.57-5.22,39.49-1.54,53.02,1.45,34.36,7.59,64.9,22.83,91.19,46.13,3.31,2.93,7.54,8.89,11.64,10.07,7.5,2.17,21.33,1.21,29.88,2.15,27.56,3.04,62.06,17.91,84.9,33.42,23.4,15.89,69.56,54.12,77.68,81.35,4.33,14.51-7.06,16.94-18.24,20.35.13,3.88,1.11,7.14.87,11.17-.78,13.22-7.6,18.98-16.84,27.12-28.99,25.58-69.22,51.66-107.9,58.18-10.73,1.81-21.67,1.47-32.36,2.92-5.49.74-6.74,5.01-10.14,8.31-19.15,18.55-47.17,35.81-73.66,40.32-10.94,1.86-39.26,3.79-48.13-3.09-3.39-2.63-2.71-3.51-.91-6.87,8.87-16.58,25.69-30.93,36.7-46.34l.83-2.67h-.01ZM402.42,249.68c-2.56-5.83-6.26-11.14-8.78-17-9.24-21.52-10.06-53.63-.71-75.26,1.98-4.59,6.31-8.7,6.16-13.77-.91-2.73-6.65,1.7-8.02,2.68-23.14,16.53-33.84,33.41-26.06,62.87,3.88,14.7,9.46,22.14,21.12,31.53,2.11,1.7,14.18,10.81,16.29,8.95h0ZM449.45,155.96c-5.91.36-13.15,10.7-12.85,16.36.4,7.61,13.38,17.14,18.94,9.71,1.76-2.35,5.67-12.26,5.54-15.12-.21-4.85-6.85-11.24-11.63-10.95h0Z"/>
</svg>