<?xml version="1.0" encoding="UTF-8"?><svg id="Layer_1" xmlns="http://www.w3.org/2000/svg" viewBox="0 0 260.7 273.99"><defs><style>.cls-1{fill:none;}.cls-2{fill:#5a8297;}</style></defs><path class="cls-1" d="M68.8,145.54c6.82-6.41,16.46,12.88,18.34,17.56,5.5,13.69,5.54,31.48-.21,45.08-2.19,5.18-12.55,23.85-19.8,16.84-4.95-4.79,3.39-11.28,5.84-15.08,7.54-11.68,8.98-27.6,4.24-40.64-1.76-4.83-10.5-16.87-9.96-20.39.08-.53,1.2-3.03,1.56-3.37Z"/><path class="cls-1" d="M42.97,166.47c13.58-2.74,15.33,15.39,6.23,18.2-14.31,4.41-17.11-16-6.23-18.2Z"/><path class="cls-2" d="M252.48,123.08c14.93-2.32,5.55,16.28,2.57,23.52-4.4,10.7-16.3,28.63-15.1,39.53,1.05,9.48,14.18,28.86,17.97,39.64,1.46,4.16,5.81,15.5-1.15,16.83-9.87,1.88-26.03-11.31-33.29-17.55-6.38-5.48-14.3-15.36-20.57-19.83-3.7-2.64-4.58-.97-7.79,1.18-10.43,6.98-18.87,15.78-30.52,22.61-9.46,5.55-19.54,9.51-29.39,13.99,7.71,4.31,15.68,29.23,3.9,30.91-11.2,1.6-33.45-17.68-39.08-27.17-30.56-2.6-59.45-16.62-81.96-37.01-6.66-6.03-20.23-17.77-17.8-27.57,1.91-7.68,18.45-21.47,25-26.62,50.68-39.9,103.3-42.63,156.84-5.85,2.96,2.03,15.94,12.83,17.79,12.84,1.23,0,2.07-.8,2.99-1.45,9.05-6.42,18.61-19.07,28.13-26.48,5.28-4.11,14.87-10.47,21.43-11.49ZM68.8,145.54c-.36.33-1.47,2.83-1.56,3.37-.54,3.52,8.2,15.56,9.96,20.39,4.75,13.04,3.3,28.96-4.24,40.64-2.45,3.8-10.79,10.3-5.84,15.08,7.25,7.02,17.61-11.66,19.8-16.84,5.75-13.59,5.71-31.38.21-45.08-1.88-4.68-11.52-23.97-18.34-17.56ZM42.97,166.47c-10.88,2.2-8.08,22.61,6.23,18.2,9.1-2.81,7.35-20.94-6.23-18.2Z"/><path class="cls-2" d="M64.22,54.16c-1.22,15.55,1.3,32.79-.11,48.15-2.61,28.44-38.59,40.02-55.53,15.9-6.24-8.89-6.28-30.55-5.09-41.34.61-5.48,4.76-7.76,9.03-3.75,6.44,6.04,12.25,19.2,17.61,26.58,1.04,8.92-7.91,5.99-13.14,3.75,4.09,21.16,31.33,18.09,33.57-3.46,1.07-10.28.78-28.33.12-38.85-.14-2.21-1.02-4.3-.76-6.56-14.43-5.5-21.94-16.57-20.23-32.32C30.88,11.36,41.78,1.28,52.53.2c35.85-3.61,44.49,43.44,11.69,53.97ZM53.44,13.83c-2.05.43-5.87,3.12-7.17,4.8-9.29,12.07,4.9,28.78,18.1,20.35s4.41-28.37-10.93-25.15Z"/><path class="cls-2" d="M163.63,123.64c-20.33-9.14-42.68-14.2-65.09-12.34,7.47-7.47,16.19-14.9,25.21-20.44,8.4-5.17,28.86-15.98,36.02-4.88,2.81,4.34,3.55,13.36,3.86,18.59.36,6.32-.25,12.75,0,19.07Z"/></svg>