<?xml version="1.0" encoding="UTF-8"?><svg id="Layer_1" xmlns="http://www.w3.org/2000/svg" viewBox="0 0 368.08 293.28"><defs><style>.cls-1{fill:#5a8297;}</style></defs><path class="cls-1" d="M0,145.97c1.68-2.02,3.45-3.97,5.41-5.73C56.18,94.56,113.13,53.6,164.22,8.01c14.29-10.7,25.23-10.67,39.48,0,17.24,12.91,33.18,29.3,50.33,42.37.75.57,1.62,1.12,2.51,1.44V9.07c0-4.34,3.2-7.76,7.53-8.28,9.07-1.09,34.71-1.02,43.85.02,3.3.38,5.28,1.66,7,4.5l.69,95.6c.28.95,1.32,1.63,2,2.31,13.08,13.11,31.61,24.51,45.29,37.35,4.51,4.23,7.28,7.12,3.17,13.26-7.23,5.4-13.82,24.33-24.67,16.87L184.21,39.67,26.11,171c-2.68,1.8-6.11,2.38-8.83.45L0,151v-5.03Z"/><path class="cls-1" d="M213.42,293.28v-87.67h-58.92v87.67h-89.47c-5.24,0-12.57-7.87-12.58-13.29l.37-112.45L183.71,59.88l2.76,1.29,128.62,106.36.37,112.45c0,5.42-7.34,13.29-12.58,13.29h-89.47Z"/></svg>